<?xml version="1.0" encoding="utf-8"?>
<!-- Generator: Adobe Adobe Illustrator 24.2.0, SVG Export Plug-In . SVG Version: 6.00 Build 0)  -->
<svg version="1.1" xmlns="http://www.w3.org/2000/svg" xmlns:xlink="http://www.w3.org/1999/xlink" x="0px" y="0px"
	 viewBox="0 0 1920 1080" style="enable-background:new 0 0 1920 1080;" xml:space="preserve">
<style type="text/css">
	.st0{display:none;}
	.st1{display:inline;fill:#2542B3;stroke:#FFFFFF;stroke-miterlimit:10;}
	.st2{fill:#BA4927;stroke:#FFFFFF;stroke-miterlimit:10;}
	.st3{fill:#D67E5E;}
	.st4{display:inline;fill:#6474ED;}
	.st5{fill:#CFCFCF;}
	.st6{fill:#DBA595;}
	.st7{fill:#BA4927;}
</style>
<g id="Base" class="st0">
	<rect y="720" class="st1" width="1920" height="360"/>
	<rect x="130" y="410" transform="matrix(-1.836970e-16 1 -1 -1.836970e-16 1210 -30)" class="st1" width="980" height="360"/>
	
		<rect x="880" y="410" transform="matrix(-1.836970e-16 1 -1 -1.836970e-16 1960 -779.9999)" class="st1" width="980" height="360"/>
</g>
<g id="Colored_Base_1">
	<rect y="720" class="st2" width="1920" height="360"/>
	<g>
		<g>
			<polygon class="st2" points="1233.26,100 1190,275.16 1190,1080 1550,1080 1550,100 			"/>
		</g>
	</g>
	<g>
		<g>
			<polygon class="st2" points="759.13,100 440,100 440,1080 800,1080 800,274.24 			"/>
		</g>
	</g>
</g>
<g id="Colored_Base_2">
	<rect x="440" y="142" class="st3" width="312" height="938"/>
	
		<rect x="818.18" y="455" transform="matrix(6.123234e-17 -1 1 6.123234e-17 50.1808 1898.1808)" class="st3" width="312" height="938"/>
	<rect x="1238" y="142" class="st3" width="312" height="938"/>
	<polygon class="st3" points="994.55,630 751.09,768 1238,768 	"/>
</g>
<g id="Lighter_Base" class="st0">
	<rect x="440" y="142" class="st4" width="312" height="938"/>
	
		<rect x="818.18" y="455" transform="matrix(6.123234e-17 -1 1 6.123234e-17 50.1808 1898.1808)" class="st4" width="312" height="938"/>
	<rect x="1238" y="142" class="st4" width="312" height="938"/>
	<rect x="1641.68" y="372.01" class="st4" width="242.5" height="70"/>
	<polygon class="st4" points="994.55,630 751.09,768 1238,768 	"/>
</g>
<g id="Windows">
	<g>
		<rect x="1621.12" y="891.3" class="st5" width="61.93" height="96"/>
		<ellipse class="st5" cx="1652.09" cy="891.3" rx="31.7" ry="24.5"/>
	</g>
	<g>
		<rect x="1714.94" y="891.3" class="st5" width="61.93" height="96"/>
		<ellipse class="st5" cx="1745.91" cy="891.3" rx="31.7" ry="24.5"/>
	</g>
	<g>
		<rect x="1812.94" y="891.3" class="st5" width="61.93" height="96"/>
		<ellipse class="st5" cx="1843.91" cy="891.3" rx="31.7" ry="24.5"/>
	</g>
	<g>
		<rect x="89.24" y="882.75" class="st5" width="61.93" height="96"/>
		<ellipse class="st5" cx="120.2" cy="882.75" rx="31.7" ry="24.5"/>
	</g>
	<g>
		<rect x="183.06" y="882.75" class="st5" width="61.93" height="96"/>
		<ellipse class="st5" cx="214.02" cy="882.75" rx="31.7" ry="24.5"/>
	</g>
	<g>
		<rect x="281.06" y="882.75" class="st5" width="61.93" height="96"/>
		<ellipse class="st5" cx="312.02" cy="882.75" rx="31.7" ry="24.5"/>
	</g>
	<g>
		<rect x="1071.97" y="877.85" class="st5" width="81.87" height="109.15"/>
		<ellipse class="st5" cx="1112.91" cy="877.85" rx="41.91" ry="27.85"/>
	</g>
	<g>
		<rect x="841.07" y="877.85" class="st5" width="81.87" height="109.15"/>
		<ellipse class="st5" cx="882" cy="877.85" rx="41.91" ry="27.85"/>
	</g>
	<g>
		<rect x="956.07" y="848.38" class="st5" width="81.87" height="138.62"/>
		<ellipse class="st5" cx="997" cy="848.38" rx="41.91" ry="35.38"/>
	</g>
	<g>
		<rect x="626.41" y="243.21" class="st5" width="42" height="96"/>
		<ellipse class="st5" cx="647.41" cy="243.21" rx="21.5" ry="24.5"/>
	</g>
	<g>
		<rect x="558.23" y="243.21" class="st5" width="42" height="96"/>
		<ellipse class="st5" cx="579.23" cy="243.21" rx="21.5" ry="24.5"/>
	</g>
	<g>
		<rect x="491.23" y="243.21" class="st5" width="42" height="96"/>
		<ellipse class="st5" cx="512.23" cy="243.21" rx="21.5" ry="24.5"/>
	</g>
	<g>
		<rect x="1441" y="243.21" class="st5" width="42" height="96"/>
		<ellipse class="st5" cx="1462" cy="243.21" rx="21.5" ry="24.5"/>
	</g>
	<g>
		<rect x="1347.68" y="243.21" class="st5" width="42" height="96"/>
		<ellipse class="st5" cx="1368.68" cy="243.21" rx="21.5" ry="24.5"/>
	</g>
</g>
<g id="Streak">
	<path class="st6" d="M1407.7,1052.9V394.4c0-5.94,4.81-10.75,10.75-10.75l0,0c5.94,0,10.75,4.81,10.75,10.75v658.5
		c0,5.94-4.81,10.75-10.75,10.75l0,0C1412.52,1063.65,1407.7,1058.84,1407.7,1052.9z"/>
	<path class="st6" d="M532.16,1049.25v-658.5c0-5.94,4.81-10.75,10.75-10.75l0,0c5.94,0,10.75,4.81,10.75,10.75v658.5
		c0,5.94-4.81,10.75-10.75,10.75l0,0C536.97,1060,532.16,1055.19,532.16,1049.25z"/>
	<path class="st6" d="M600.7,1049.25v-658.5c0-5.94,4.81-10.75,10.75-10.75h0c5.94,0,10.75,4.81,10.75,10.75v658.5
		c0,5.94-4.81,10.75-10.75,10.75h0C605.52,1060,600.7,1055.19,600.7,1049.25z"/>
</g>
<g id="Triangles">
	<polygon class="st7" points="62.5,650 1.5,722 123.5,722 	"/>
	<polygon class="st7" points="1859,651.65 1798,723.65 1920,723.65 	"/>
</g>
</svg>
